<?xml version="1.0" standalone="no"?>
<!DOCTYPE svg PUBLIC "-//W3C//DTD SVG 20010904//EN"
 "http://www.w3.org/TR/2001/REC-SVG-20010904/DTD/svg10.dtd">
<svg version="1.0" xmlns="http://www.w3.org/2000/svg"
 width="991.000000pt" height="991.000000pt" viewBox="0 0 991.000000 991.000000"
 preserveAspectRatio="xMidYMid meet">
<metadata>
Created by potrace 1.11, written by Peter Selinger 2001-2013
</metadata>
<g transform="translate(0.000000,991.000000) scale(0.100000,-0.100000)"
fill="#000000" stroke="none">
<path d="M0 4955 l0 -4955 4955 0 4955 0 0 4955 0 4955 -4955 0 -4955 0 0
-4955z m4454 3534 l-832 -832 -83 36 c-163 69 -332 95 -498 77 -134 -15 -226
-41 -346 -100 -263 -127 -443 -343 -532 -635 -25 -83 -27 -104 -27 -265 -1
-153 2 -186 22 -260 47 -172 129 -315 257 -448 306 -321 778 -401 1180 -200
282 141 486 416 541 730 21 122 15 301 -15 415 -21 81 -65 195 -85 221 -7 10
241 264 1030 1053 l1039 1039 1510 -2 1510 -3 50 -25 c66 -32 121 -90 154
-159 l26 -56 3 -4055 2 -4055 -841 841 -840 840 29 75 c51 127 67 218 66 374
-1 117 -5 156 -27 237 -49 185 -136 338 -266 469 -369 368 -944 399 -1351 71
-345 -277 -467 -746 -303 -1161 62 -159 194 -330 336 -437 292 -219 714 -259
1039 -99 38 19 75 35 82 35 6 0 382 -371 836 -825 l825 -825 -4065 2 -4065 3
-53 29 c-65 36 -107 82 -141 156 l-26 55 0 4135 0 4135 27 56 c45 91 124 158
213 180 17 4 1024 7 2240 8 l2210 1 -831 -831z m-1129 -1343 c259 -128 321
-463 124 -671 -96 -101 -195 -140 -339 -133 -74 3 -98 9 -154 37 -127 62 -214
178 -238 320 -30 173 62 355 222 440 79 42 120 51 223 47 77 -3 97 -8 162 -40z
m3578 -3655 c111 -39 198 -118 250 -230 39 -82 49 -206 23 -292 -36 -125 -148
-244 -269 -286 -72 -25 -214 -25 -282 1 -131 50 -228 151 -266 278 -56 184 22
393 180 486 110 65 252 81 364 43z"/>
<path d="M6649 7770 c-90 -11 -178 -34 -276 -75 -241 -98 -465 -330 -553 -573
-97 -268 -89 -511 25 -777 l38 -87 -1136 -1136 -1135 -1135 -88 35 c-145 58
-228 73 -394 72 -122 -1 -160 -5 -241 -27 -110 -29 -221 -78 -306 -134 -78
-51 -215 -183 -269 -259 -58 -81 -127 -229 -154 -329 -31 -114 -39 -331 -15
-446 40 -202 130 -371 270 -514 101 -103 179 -160 299 -216 193 -90 439 -116
649 -69 243 54 473 212 616 423 53 78 119 226 143 323 19 75 23 114 22 249 -1
179 -15 252 -79 399 l-35 81 1141 1141 1141 1141 68 -28 c129 -54 229 -73 390
-72 124 0 160 4 245 27 360 95 636 372 731 731 23 87 27 120 27 250 0 129 -4
164 -26 246 -110 415 -450 710 -877 759 -95 11 -125 11 -221 0z m240 -599
c121 -38 205 -111 264 -231 30 -61 32 -71 32 -175 0 -103 -2 -114 -32 -177
-44 -94 -109 -160 -202 -206 -73 -36 -78 -37 -185 -37 -104 0 -115 2 -179 32
-193 92 -290 308 -228 511 68 224 308 352 530 283z m-3567 -3699 c169 -83 269
-272 238 -451 -61 -352 -486 -483 -731 -224 -92 97 -133 227 -111 355 28 162
131 285 286 340 39 14 74 18 152 16 89 -3 107 -7 166 -36z"/>
</g>
</svg>
